# xmcd
#
# Track frame offsets: 
#        150
#        19529
#        31399
#        55631
#        76301
#        94085
#        114484
#        125586
#        139755
#        161797
#        177234
#        196624
#        215913
#        237468
#        256948
#        279875
#        301127
#
# Disc length: 4260 seconds
#
# Revision: 0
# Processed by: cddbd v1.5.2PL0 Copyright (c) Steve Scherf et al.
# Submitted via: ExactAudioCopy v0.99pb5
#
DISCID=e110a211
DTITLE=Various Artist - Tributo a Diana
DYEAR=2000
DGENRE=Ballad
TTITLE0=Angel - Annie Lennox
TTITLE1=Make me a channel of you peace - Sined O'Connor
TTITLE2=Miss Sarajevo - Bono and Pavarotti
TTITLE3=Tears in heaven - Eric Clapton
TTITLE4=Don't dream it's over - Neil Finn
TTITLE5=Love minus cero - no limit - Rod Stewart
TTITLE6=Watermark - Enya
TTITLE7=Evergreen, love the from Astor is Born - Barbara Streisand
TTITLE8=Every nation - Red Hot R - B All Stars
TTITLE9=Gone too soon - Michael Jackson
TTITLE10=Prayer for the dying - Seal
TTITLE11=Missing you - Diana Ross
TTITLE12=Wish you were here - Bee Gees
TTITLE13=All this matters - Cliff Richard
TTITLE14=Mama - Spice Girls
TTITLE15=Ave Maria - Michael Bolton and Placido Domingo
TTITLE16=Pavane - Lesley Garrett
EXTD=
EXTT0=
EXTT1=
EXTT2=
EXTT3=
EXTT4=
EXTT5=
EXTT6=
EXTT7=
EXTT8=
EXTT9=
EXTT10=
EXTT11=
EXTT12=
EXTT13=
EXTT14=
EXTT15=
EXTT16=
PLAYORDER=
